<?xml version="1.0" encoding="UTF-8" standalone="no"?>
<!-- Generator: Adobe Illustrator 21.1.0, SVG Export Plug-In . SVG Version: 6.00 Build 0)  -->

<svg
   xmlns:dc="http://purl.org/dc/elements/1.1/"
   xmlns:cc="http://creativecommons.org/ns#"
   xmlns:rdf="http://www.w3.org/1999/02/22-rdf-syntax-ns#"
   xmlns:svg="http://www.w3.org/2000/svg"
   xmlns="http://www.w3.org/2000/svg"
   xmlns:sodipodi="http://sodipodi.sourceforge.net/DTD/sodipodi-0.dtd"
   xmlns:inkscape="http://www.inkscape.org/namespaces/inkscape"
   version="1.1"
   id="Ebene_1"
   x="0px"
   y="0px"
   viewBox="0 0 64 64"
   style="enable-background:new 0 0 64 64;"
   xml:space="preserve"
   inkscape:version="0.91 r13725"
   sodipodi:docname="faucet_icon_nav.svg"><metadata
     id="metadata15"><rdf:RDF><cc:Work
         rdf:about=""><dc:format>image/svg+xml</dc:format><dc:type
           rdf:resource="http://purl.org/dc/dcmitype/StillImage" /></cc:Work></rdf:RDF></metadata><defs
     id="defs13" /><sodipodi:namedview
     pagecolor="#ffffff"
     bordercolor="#666666"
     borderopacity="1"
     objecttolerance="10"
     gridtolerance="10"
     guidetolerance="10"
     inkscape:pageopacity="0"
     inkscape:pageshadow="2"
     inkscape:window-width="3710"
     inkscape:window-height="2112"
     id="namedview11"
     showgrid="false"
     inkscape:zoom="10.429825"
     inkscape:cx="21.83968"
     inkscape:cy="8.017795"
     inkscape:window-x="130"
     inkscape:window-y="48"
     inkscape:window-maximized="1"
     inkscape:current-layer="Ebene_1" /><style
     type="text/css"
     id="style3">
	.st0{fill:none;stroke:#FFFFFF;stroke-width:2;stroke-miterlimit:10;}
	.st1{fill:#40AD55;}
</style><g
     id="g5"
     transform="matrix(0.75495908,0,0,0.72565773,4.3821228,12.296142)"><g
       id="g7"><path
         class="st1"
         d="m 47.4,37.8 0,0 0,7.6 c 0,1.4 -1.1,2.5 -2.5,2.5 l -26,0 c -1,0 -1.9,-0.6 -2.3,-1.5 -0.4,-0.9 -0.2,-2 0.5,-2.7 l 21.8,-21.8 -17.6,0 0,5.1 5.8,0 -10.8,10.8 0,-10.9 0,0 0,-7.6 c 0,-1.4 1.1,-2.5 2.5,-2.5 l 26,0 c 1,0 1.9,0.6 2.3,1.5 0.4,0.9 0.2,2 -0.5,2.7 l -21.7,21.9 17.5,0 0,-5.1 -5.8,0 10.8,-10.8 0,10.8 z"
         id="path9"
         inkscape:connector-curvature="0"
         style="fill:#40ad55" /></g></g><path
     style="fill:#42ab54;fill-opacity:0;fill-rule:evenodd;stroke:#40ad55;stroke-width:2.93187094;stroke-linecap:butt;stroke-linejoin:miter;stroke-miterlimit:4;stroke-dasharray:none;stroke-opacity:1"
     d="M 48.123853,36.017768 A 20.070864,20.070864 0 0 1 28.052989,56.088633 20.070864,20.070864 0 0 1 7.9821252,36.017768 20.070864,20.070864 0 0 1 28.052989,15.946904 20.070864,20.070864 0 0 1 48.123853,36.017768 Z"
     id="path3336"
     inkscape:connector-curvature="0" /><path
     inkscape:connector-curvature="0"
     id="path15"
     d="m 50.10829,33.133019 c 5.739623,0.0078 10.53012,4.530733 11.056625,10.438871 l 1.061336,0 c 0.557678,0 1.009822,0.4674 1.009822,1.043883 l 0,4.175557 c 0,0.576484 -0.452144,1.043884 -1.009822,1.043884 l -8.07864,0 c -0.557678,0 -1.009839,-0.4674 -1.009839,-1.043884 l 0,-4.175557 c 0,-0.576483 0.452161,-1.043883 1.009839,-1.043883 l 0.90884,0 C 54.573372,41.14342 52.506763,39.399475 50.10829,39.396342 l -1.106566,0 0.07565,-6.284022 z m 5.049143,14.614415 6.05898,0 0,-2.087765 -6.05898,0 z M 50.10829,37.308566 c 3.510801,0.0042 6.486518,2.671441 6.98802,6.263324 l 2.040874,0 C 58.618637,38.820375 54.733939,35.227319 50.10829,35.220787 l -1.06118,0 0,2.087779 z"
     style="fill:#40ad55;fill-opacity:1"
     sodipodi:nodetypes="ccssssssssccccccccccccccccc" /><path
     style="fill:#40ad55;fill-opacity:1;fill-rule:nonzero;stroke:none"
     d="M 20.701172 4.359375 C 20.080208 4.3154487 19.439131 4.4504916 18.859375 4.7851562 C 17.313669 5.6779532 16.783003 7.6535399 17.675781 9.1992188 C 18.568231 10.745254 20.545746 11.27525 22.091797 10.382812 C 22.583043 10.099274 22.991855 9.6908466 23.275391 9.1992188 L 26.943359 9.1992188 L 26.943359 15.017578 C 28.009924 14.802332 29.10922 14.802332 30.175781 15.017578 L 30.175781 9.1992188 L 33.84375 9.1992188 C 34.736189 10.745254 36.711776 11.27525 38.257812 10.382812 C 39.803491 9.4903728 40.334203 7.5147853 39.441406 5.96875 C 38.548966 4.4230711 36.571427 3.8927171 35.025391 4.7851562 C 34.53412 5.069047 34.127284 5.4774786 33.84375 5.96875 L 23.275391 5.96875 C 22.717607 5.0027007 21.736112 4.4325855 20.701172 4.359375 z M 36.728516 5.6347656 A 1.907588 1.907588 0 0 1 38.636719 7.5429688 A 1.907588 1.907588 0 0 1 36.728516 9.4492188 A 1.907588 1.907588 0 0 1 34.820312 7.5429688 A 1.907588 1.907588 0 0 1 36.728516 5.6347656 z M 20.390625 5.6855469 A 1.907588 1.907588 0 0 1 22.296875 7.59375 A 1.907588 1.907588 0 0 1 20.390625 9.5 A 1.907588 1.907588 0 0 1 18.482422 7.59375 A 1.907588 1.907588 0 0 1 20.390625 5.6855469 z "
     id="path7" /><path
     style="opacity:1;fill:#40ad55;fill-opacity:1;stroke:#f6ad55;stroke-width:0.086;stroke-miterlimit:4;stroke-dasharray:none;stroke-opacity:0;stroke-linejoin:round"
     d="m 0.36599811,33.146486 0,6.115529 7.81047679,0 0,-6.115529 -7.81047679,0 z m 1.20150079,1.834268 5.3065086,0 0,2.513552 -5.3065086,0 0,-2.513552 z"
     id="rect4235"
     inkscape:connector-curvature="0" /></svg>